<?xml version="1.0" standalone="no"?>
<!DOCTYPE svg PUBLIC "-//W3C//DTD SVG 20010904//EN"
 "http://www.w3.org/TR/2001/REC-SVG-20010904/DTD/svg10.dtd">
<svg version="1.0" xmlns="http://www.w3.org/2000/svg"
 width="260.000000pt" height="260.000000pt" viewBox="0 0 260.000000 260.000000"
 preserveAspectRatio="xMidYMid meet">
<metadata>
Created by potrace 1.14, written by Peter Selinger 2001-2017
</metadata>
<g transform="translate(0.000000,260.000000) scale(0.100000,-0.100000)"
fill="#000000" stroke="none">
<path d="M495 2509 c-60 -23 -100 -53 -134 -103 -43 -62 -52 -111 -53 -286 l0
-159 -80 0 c-47 0 -85 -5 -94 -12 -9 -8 -14 -33 -14 -79 0 -83 16 -102 82
-100 24 1 57 1 75 1 l32 -1 0 -185 c0 -102 -3 -186 -7 -186 -4 -1 -40 -3 -79
-4 -40 -1 -79 -8 -88 -15 -22 -18 -21 -142 1 -161 9 -7 46 -14 87 -15 40 -1
75 -2 79 -3 3 0 7 -84 7 -186 1 -170 0 -185 -16 -186 -10 0 -46 -1 -80 0 -83
1 -93 -10 -93 -99 0 -85 10 -93 115 -91 l72 1 2 -166 c0 -92 6 -183 12 -204
28 -92 132 -180 232 -197 l37 -6 0 1232 0 1231 -26 -2 c-14 -2 -45 -10 -69
-19z"/>
<path d="M780 1300 l0 -1230 730 0 c700 0 733 1 783 20 73 28 121 70 156 142
l31 61 -3 1016 -2 1016 -24 45 c-33 62 -92 115 -154 139 -50 19 -80 20 -784
20 l-733 1 0 -1230z m935 459 c52 -15 103 -52 142 -103 64 -86 74 -193 26
-293 -9 -19 -14 -35 -12 -36 141 -95 225 -233 230 -378 2 -51 -23 -105 -54
-115 -25 -8 -788 -7 -825 1 -76 16 -83 152 -14 294 26 54 126 167 166 189 19
9 19 11 -3 63 -19 44 -23 66 -19 124 5 78 22 117 75 176 72 79 179 108 288 78z"/>
<path d="M1613 1582 c-28 -4 -70 -46 -75 -76 -8 -40 18 -85 57 -102 30 -12 39
-12 69 0 103 43 60 196 -51 178z"/>
<path d="M1580 1200 c-94 -17 -210 -116 -210 -178 0 -13 513 -7 517 5 6 17
-25 63 -70 105 -59 55 -157 83 -237 68z"/>
</g>
</svg>
