<?xml version="1.0" encoding="UTF-8" standalone="no"?>
<svg
   viewBox="0 0 96.000005 96.000003"
   version="1.1"
   id="svg13"
   sodipodi:docname="impervious.svg"
   width="96"
   height="96"
   inkscape:version="1.3 (0e150ed6c4, 2023-07-21)"
   xmlns:inkscape="http://www.inkscape.org/namespaces/inkscape"
   xmlns:sodipodi="http://sodipodi.sourceforge.net/DTD/sodipodi-0.dtd"
   xmlns="http://www.w3.org/2000/svg"
   xmlns:svg="http://www.w3.org/2000/svg">
  <sodipodi:namedview
     id="namedview13"
     pagecolor="#505050"
     bordercolor="#eeeeee"
     borderopacity="1"
     inkscape:showpageshadow="0"
     inkscape:pageopacity="0"
     inkscape:pagecheckerboard="0"
     inkscape:deskcolor="#d1d1d1"
     inkscape:zoom="1.8765553"
     inkscape:cx="-15.98674"
     inkscape:cy="103.38092"
     inkscape:window-width="1920"
     inkscape:window-height="1122"
     inkscape:window-x="0"
     inkscape:window-y="0"
     inkscape:window-maximized="1"
     inkscape:current-layer="svg13" />
  <defs
     id="defs2">
    <style
       id="style1">.cls-1{opacity:0.9;}.cls-2{fill:url(#linear-gradient);}.cls-3{opacity:0.8;}.cls-4{fill:#20202a;}</style>
    <linearGradient
       id="linear-gradient"
       x1="54.029999"
       y1="21.02"
       x2="82.5"
       y2="21.02"
       gradientUnits="userSpaceOnUse"
       gradientTransform="matrix(2.1947521,0,0,2.1947521,-101.8393,1.9086825)">
      <stop
         offset="0"
         stop-color="#5c2d90"
         id="stop1" />
      <stop
         offset="1"
         stop-color="#eb008b"
         id="stop2" />
    </linearGradient>
  </defs>
  <path
     class="cls-2"
     d="M 73.499451,23.307513 A 8.6253758,8.6253758 0 0 0 64.720443,24.075676 9.8983321,9.8983321 0 0 0 47.162426,21.990662 9.7008044,9.7008044 0 0 0 36.32035,20.783548 V 12.00454 A 9.7666469,9.7666469 0 0 0 29.626356,2.3915254 9.6349618,9.6349618 0 0 0 21.878881,3.1596887 9.6788569,9.6788569 0 0 0 17.116269,9.2830471 11.939452,11.939452 0 0 0 16.809004,11.894802 q 0,6.979312 0,13.980571 c 0,11.698029 0,23.813061 0.153633,35.708617 a 31.911696,31.911696 0 0 0 16.943486,28.882938 26.995451,26.995451 0 0 0 13.673306,3.621341 31.25327,31.25327 0 0 0 28.114774,-17.97502 34.325923,34.325923 0 0 0 3.489656,-15.75832 c 0,-4.038344 0,-8.05474 0,-12.093084 q 0,-7.988898 0,-15.999743 A 9.3276965,9.3276965 0 0 0 73.499451,23.307513 Z M 60.067568,44.442976 h -9.020431 v -2.83123 c 0,-4.652875 0,-9.283802 0,-13.936676 a 4.630927,4.630927 0 0 1 0.329213,-1.755802 4.4620045,4.4620045 0 0 1 8.779008,1.602169 c 0,1.931382 0,3.884711 0,5.816093 z m 5.838041,-3.028758 c 0,-2.897073 0,-5.772198 0,-8.669271 a 8.4059006,8.4059006 0 0 1 0.373108,-2.194752 3.8188687,3.8188687 0 0 1 2.194752,-2.326437 3.4677084,3.4677084 0 0 1 3.072653,0.02195 4.3895042,4.3895042 0 0 1 2.370332,4.148082 c 0,4.016396 0,8.032793 0,12.049189 v 0.987638 A 8.0766878,8.0766878 0 0 0 69.900058,44.421028 H 65.927556 Z M 22.010567,17.271945 c 0,-1.887487 0,-3.774974 0,-5.684408 a 4.3895042,4.3895042 0 0 1 4.082238,-4.3895044 h 0.395056 a 4.5650844,4.5650844 0 0 1 4.389504,3.5335514 8.0547403,8.0547403 0 0 1 0.17558,1.646064 v 12.751509 q 0,9.7447 0,19.489399 a 9.7446994,9.7446994 0 0 0 8.230321,9.613014 9.1301688,9.1301688 0 0 0 0.987638,4.389505 9.6788569,9.6788569 0 0 0 8.362006,5.48688 13.168513,13.168513 0 0 0 -3.709131,10.490915 2.6775976,2.6775976 0 0 0 2.787335,2.65565 2.6337025,2.6337025 0 0 0 1.909434,-0.899848 2.7873352,2.7873352 0 0 0 0.636478,-2.194752 8.4936907,8.4936907 0 0 1 2.962916,-7.110997 25.85418,25.85418 0 0 1 6.123358,-4.235872 l 2.019172,-1.163218 0.877901,-0.504793 a 1.1632186,1.1632186 0 0 0 0.504793,-1.404642 v -0.26337 A 1.1412711,1.1412711 0 0 0 61.669737,58.75276 H 49.24744 a 4.3895042,4.3895042 0 0 1 -4.389504,-3.599394 4.6528745,4.6528745 0 0 1 0.965691,-3.840816 4.5870319,4.5870319 0 0 1 3.577446,-1.558274 h 20.586775 a 2.4800699,2.4800699 0 0 1 2.194752,1.097376 7.7694225,7.7694225 0 0 1 1.777749,5.004035 c 0,1.053481 0,2.085015 0,3.138496 a 37.091311,37.091311 0 0 1 -0.61453,8.164477 28.026985,28.026985 0 0 1 -8.383953,14.88042 24.142273,24.142273 0 0 1 -22.803475,6.145306 24.712909,24.712909 0 0 1 -14.353679,-9.722752 28.817095,28.817095 0 0 1 -5.75025,-17.558017 v 0 -41.568605 z M 40.92933,25.01942 v 0 a 4.4992418,4.4992418 0 0 1 4.389504,4.499242 c 0,3.972501 0,7.96695 0,11.939451 v 3.094601 a 2.1947521,2.1947521 0 0 1 0,0.417002 c 0,0.153633 0,0.219476 0,0.197528 a 10.666495,10.666495 0 0 0 -4.499242,3.862764 4.3895042,4.3895042 0 0 1 -4.389504,-4.257819 v -1.909435 c 0,-1.141271 0,-2.194752 0,-3.401865 v -4.630927 c 0,-1.141271 0,-2.194752 0,-3.423814 0,-0.636478 0,-1.272956 0,-1.909434 a 4.3895042,4.3895042 0 0 1 4.608979,-4.455347 z"
     id="path2"
     style="opacity:0.9;fill:url(#linear-gradient);stroke-width:2.19475" />
</svg>
