<svg height="512" viewBox="0 0 32 32" width="512" xmlns="http://www.w3.org/2000/svg"><g id="Layer_20"><path d="m22.8291 19h-5.6582c.4131-1.1641 1.5254-2 2.8291-2s2.416.8359 2.8291 2zm-1.8291-5c0-.5513-.4482-1-1-1s-1 .4487-1 1 .4482 1 1 1 1-.4487 1-1zm-12 15c-1.6543 0-3-1.3457-3-3v-3h-1.5c-.2761 0-.5-.2239-.5-.5v-1c0-.2761.2239-.5.5-.5h1.5v-4h-1.5c-.2761 0-.5-.2239-.5-.5v-1c0-.2761.2239-.5.5-.5h1.5v-4h-1.5c-.2761 0-.5-.2239-.5-.5v-1c0-.2761.2239-.5.5-.5h1.5v-3c0-1.6543 1.3457-3 3-3zm17-26h-15v26h15c1.6543 0 3-1.3457 3-3v-20c0-1.6543-1.3457-3-3-3zm-2 18h-8c-.5527 0-1-.4478-1-1 0-1.8502 1.022-3.4506 2.52-4.3153-.3276-.4807-.52-1.0604-.52-1.6847 0-1.6543 1.3457-3 3-3s3 1.3457 3 3c0 .6243-.1924 1.204-.52 1.6847 1.498.8647 2.52 2.4651 2.52 4.3153 0 .5522-.4473 1-1 1z"/></g></svg>