<?xml version="1.0" encoding="UTF-8" standalone="no"?>
<!-- Created with Inkscape (http://www.inkscape.org/) -->

<svg
   version="1.1"
   id="svg1"
   width="842"
   height="256"
   viewBox="0 0 842 256"
   sodipodi:docname="logo.svg"
   inkscape:version="1.3 (0e150ed6c4, 2023-07-21)"
   xml:space="preserve"
   xmlns:inkscape="http://www.inkscape.org/namespaces/inkscape"
   xmlns:sodipodi="http://sodipodi.sourceforge.net/DTD/sodipodi-0.dtd"
   xmlns="http://www.w3.org/2000/svg"
   xmlns:svg="http://www.w3.org/2000/svg"><defs
     id="defs1" /><sodipodi:namedview
     id="namedview1"
     pagecolor="#505050"
     bordercolor="#eeeeee"
     borderopacity="1"
     inkscape:showpageshadow="0"
     inkscape:pageopacity="0"
     inkscape:pagecheckerboard="0"
     inkscape:deskcolor="#505050"
     inkscape:zoom="0.87580645"
     inkscape:cx="471.56538"
     inkscape:cy="86.777164"
     inkscape:window-width="1920"
     inkscape:window-height="1164"
     inkscape:window-x="1920"
     inkscape:window-y="0"
     inkscape:window-maximized="1"
     inkscape:current-layer="g1" /><g
     inkscape:groupmode="layer"
     inkscape:label="Image"
     id="g1"><g
       id="g2"><path
         d="M 260.87915,113.63185 V 39.559781 h 17.46789 v 28.891181 h 28.99364 V 39.559781 h 17.41667 V 113.63185 H 307.34068 V 82.845327 h -28.99364 v 30.786523 z m 93.28165,1.02451 q -5.0201,0 -9.16936,-1.89534 -4.09804,-1.94657 -6.50564,-5.63481 -2.4076,-3.68823 -2.4076,-9.015685 0,-8.657109 6.65932,-13.318629 6.65931,-4.661521 20.9,-4.712746 l 5.37868,-0.05123 v -2.714951 q 0,-3.124755 -1.79289,-4.66152 -1.74167,-1.587991 -5.48113,-1.536765 -2.66373,0.05123 -5.37868,1.280637 -2.71495,1.178187 -3.84191,4.405393 h -14.29192 q 0.30736,-5.993383 3.53456,-9.78407 3.22721,-3.790687 8.60589,-5.583579 5.4299,-1.792893 12.14044,-1.792893 8.70833,0 13.77966,2.100246 5.07132,2.049019 7.22279,5.788481 2.2027,3.688236 2.2027,8.708335 v 37.394612 h -14.49682 l -1.48554,-8.75956 q -2.51004,5.58358 -6.30073,7.68383 -3.79069,2.10024 -9.27182,2.10024 z m 5.99339,-11.21838 q 1.74166,0 3.32965,-0.61471 1.58799,-0.6147 2.81741,-1.69044 1.22941,-1.12696 1.94657,-2.458824 0.71715,-1.331863 0.76838,-2.868628 v -7.222795 l -4.30294,0.05123 q -2.66373,0 -5.53236,0.717157 -2.8174,0.717157 -4.76397,2.407598 -1.94657,1.639216 -1.94657,4.55907 0,3.329657 2.30515,5.224997 2.30515,1.89535 5.37868,1.89535 z m 36.5238,10.19387 V 60.664686 h 17.21177 v 7.427697 q 1.12696,-1.844118 2.97108,-3.63701 1.89534,-1.792893 4.76397,-2.971079 2.91985,-1.178186 7.06912,-1.178186 4.76397,0 8.96446,1.844118 4.25172,1.844117 6.91544,5.890932 2.66373,3.995589 2.66373,10.501227 V 113.63185 H 429.71844 V 80.847532 q 0,-3.483334 -2.25392,-5.225 -2.25393,-1.792893 -5.17378,-1.792893 -1.94657,0 -3.84191,0.768383 -1.89534,0.717157 -3.12476,2.202696 -1.22941,1.434314 -1.22941,3.63701 v 33.194122 z m 81.80717,1.02451 q -10.80858,0 -16.75074,-7.47892 -5.89093,-7.478924 -5.89093,-20.336524 0,-8.349757 2.4076,-14.445591 2.45882,-6.095834 7.12034,-9.425492 4.66152,-3.329657 11.32083,-3.329657 2.4076,0 4.66153,0.512255 2.25392,0.512255 4.25171,1.48554 2.04902,0.922058 3.63701,2.356372 1.63922,1.383089 2.71495,3.278432 V 37.510761 h 17.51912 v 76.121089 h -12.44779 l -2.04902,-10.8598 q -0.81961,2.45882 -2.2027,4.66152 -1.33186,2.15147 -3.32966,3.79068 -1.94657,1.58799 -4.66152,2.51005 -2.71495,0.92206 -6.30073,0.92206 z m 3.99559,-12.34534 q 4.55907,0 7.01789,-3.483338 2.45882,-3.483334 2.45882,-12.089217 0,-5.071325 -1.12696,-8.298531 -1.07573,-3.278432 -3.17598,-4.815197 -2.04902,-1.536765 -5.12255,-1.536765 -4.14926,0 -6.96667,3.329658 -2.76617,3.278431 -2.76617,11.320835 0,8.29853 2.71495,11.935541 2.71495,3.637014 6.96667,3.637014 z m 60.85593,12.34534 q -5.53235,0 -10.80858,-1.84412 -5.27623,-1.84411 -9.01569,-5.89093 -3.73946,-4.04681 -4.81519,-10.552452 h 14.95784 q 0.66593,2.714952 2.4076,4.149262 1.74167,1.43432 3.68824,1.94657 1.99779,0.51226 3.48333,0.51226 3.79069,0 6.14706,-1.07574 2.35637,-1.07573 2.35637,-3.27843 0,-1.844118 -1.48554,-2.868628 -1.43431,-1.075735 -5.07132,-1.690441 l -8.55466,-1.587991 q -7.32525,-1.383088 -11.78186,-5.071324 -4.45662,-3.739461 -4.50785,-10.552453 -0.0512,-4.866422 2.6125,-8.75956 2.66373,-3.893138 7.8375,-6.147059 5.17378,-2.305148 12.6527,-2.305148 10.34755,0 16.44339,4.507844 6.09583,4.507844 6.14706,12.447796 h -14.34314 q -0.56348,-2.714951 -2.91986,-4.09804 -2.30514,-1.434314 -5.53235,-1.434314 -3.27843,0 -5.53235,1.126961 -2.2027,1.075736 -2.2027,3.278432 0,1.690441 1.94657,2.714951 1.94657,1.02451 6.19828,1.844118 l 7.73505,1.587991 q 4.76398,1.178186 7.73505,3.175981 2.97108,1.946569 4.55907,4.251716 1.63922,2.305147 2.2027,4.610295 0.61471,2.253922 0.61471,3.995589 0,5.481124 -3.02231,9.271814 -2.97108,3.79069 -8.2473,5.78848 -5.225,1.94657 -11.88432,1.94657 z m 32.63074,-1.02451 V 37.510761 h 17.36545 V 68.24606 q 1.22941,-1.690442 3.0223,-3.483334 1.84412,-1.792893 4.61029,-3.022304 2.76618,-1.229412 6.96667,-1.229412 5.0201,0 9.22059,1.997794 4.20049,1.997794 6.71054,5.839707 2.56128,3.841912 2.56128,9.425491 v 35.857848 h -17.4679 V 80.181601 q 0,-3.124756 -2.30515,-4.712746 -2.30514,-1.639216 -5.27622,-1.639216 -1.94657,0 -3.79069,0.768383 -1.84412,0.768382 -3.0223,2.253921 -1.17819,1.48554 -1.17819,3.637011 v 33.142896 z m 77.14571,1.02451 q -5.0201,0 -9.16937,-1.89534 -4.09804,-1.94657 -6.50564,-5.63481 -2.40759,-3.68823 -2.40759,-9.015685 0,-8.657109 6.65931,-13.318629 6.65932,-4.661521 20.9,-4.712746 l 5.37868,-0.05123 v -2.714951 q 0,-3.124755 -1.79289,-4.66152 -1.74167,-1.587991 -5.48113,-1.536765 -2.66373,0.05123 -5.37868,1.280637 -2.71495,1.178187 -3.84191,4.405393 H 637.182 q 0.30735,-5.993383 3.53456,-9.78407 3.2272,-3.790687 8.60588,-5.583579 5.4299,-1.792893 12.14044,-1.792893 8.70834,0 13.77966,2.100246 5.07133,2.049019 7.2228,5.788481 2.20269,3.688236 2.20269,8.708335 v 37.394612 h -14.49681 l -1.48554,-8.75956 q -2.51005,5.58358 -6.30074,7.68383 -3.79068,2.10024 -9.27181,2.10024 z m 5.99338,-11.21838 q 1.74167,0 3.32966,-0.61471 1.58799,-0.6147 2.8174,-1.69044 1.22941,-1.12696 1.94657,-2.458824 0.71716,-1.331863 0.76838,-2.868628 v -7.222795 l -4.30294,0.05123 q -2.66373,0 -5.53235,0.717157 -2.81741,0.717157 -4.76398,2.407598 -1.94656,1.639216 -1.94656,4.55907 0,3.329657 2.30514,5.224997 2.30515,1.89535 5.37868,1.89535 z m 36.52381,10.19387 V 37.510761 h 17.41667 v 43.029418 l 17.00687,-19.875493 h 18.44118 l -19.26079,21.514709 19.67059,31.452455 h -17.10931 l -13.31863,-21.15613 -5.42991,5.993384 v 15.162746 z m 82.47301,1.02451 q -8.0424,0 -14.18946,-3.32966 -6.09583,-3.32965 -9.52794,-9.37426 -3.38089,-6.044611 -3.38089,-14.189465 0,-7.735051 3.07353,-14.087012 3.12476,-6.403188 9.01569,-10.193875 5.89093,-3.841912 14.18946,-3.841912 8.40099,0 14.03579,3.534559 5.63481,3.483334 8.45221,9.630394 2.86863,6.095834 2.86863,13.984561 v 4.354167 h -34.47476 q -0.0512,3.637011 1.12696,6.14706 1.17818,2.458824 3.32965,3.739463 2.15148,1.28064 5.0201,1.28064 3.27844,0 5.78848,-1.33187 2.56128,-1.383085 3.73947,-4.763968 h 15.57255 q -0.87084,5.788478 -4.6103,9.937748 -3.68823,4.09804 -9.01569,6.30073 -5.32745,2.2027 -11.01348,2.2027 z m -9.98897,-33.5527 h 18.33873 q 0,-2.612501 -1.02451,-4.763971 -1.02451,-2.202697 -3.07353,-3.483334 -1.9978,-1.280638 -5.07133,-1.280638 -2.71495,0 -4.81519,1.383089 -2.04902,1.331863 -3.22721,3.534559 -1.12696,2.151471 -1.12696,4.610295 z"
         id="text1"
         style="-inkscape-font-specification:'Public Sans, Ultra-Bold';fill:#ffffff;fill-rule:evenodd;stroke-width:8.37371;stroke-linecap:square"
         aria-label="Handshake" /><path
         d="M 260.87915,211.21977 V 137.1477 q 0.71716,0 3.63701,0 2.97108,0 6.86422,0 3.94436,-0.0512 7.73505,0 3.79068,0 6.19828,0.10245 13.42108,0.40981 21.87329,5.07133 8.50343,4.61029 12.4478,12.70392 3.99558,8.0424 3.99558,18.85098 0,11.16716 -4.20049,19.56814 -4.14926,8.40099 -12.70392,13.11373 -8.55466,4.66152 -21.77084,4.66152 z m 17.51912,-13.88211 h 7.06912 q 5.07132,0 9.63039,-2.30515 4.55907,-2.30514 7.4277,-7.47892 2.91985,-5.17377 2.91985,-13.88211 0,-7.73505 -2.45882,-12.75515 -2.45883,-5.0201 -6.91544,-7.42769 -4.45662,-2.45883 -10.50123,-2.45883 h -7.17157 z m 55.73338,13.88211 v -52.96716 h 16.59706 v 52.96716 z m -0.0512,-58.90932 V 137.1477 h 16.75074 v 15.16275 z m 28.42997,58.90932 v -52.96716 h 16.80196 v 13.57475 q 1.22942,-4.14926 3.53456,-7.42769 2.35638,-3.32966 5.78848,-5.225 3.43211,-1.94657 7.93996,-1.94657 0.56348,0 0.97328,0.0512 0.46103,0 0.56348,0.10245 v 16.54584 q -0.25613,-0.10245 -0.66593,-0.15368 -0.35858,-0.0512 -0.76838,-0.0512 -5.0201,-0.51226 -8.29853,0.15367 -3.22721,0.66594 -5.12255,2.15148 -1.84412,1.48553 -2.6125,3.53455 -0.71716,2.04902 -0.71716,4.45662 v 27.20074 z m 37.80444,0 v -18.18505 h 18.69731 v 18.18505 z m 55.78466,1.02451 q -8.04241,0 -14.18947,-3.32966 -6.09583,-3.32965 -9.52794,-9.37426 -3.38088,-6.04461 -3.38088,-14.18946 0,-7.73505 3.07353,-14.08702 3.12475,-6.40318 9.01569,-10.19387 5.89093,-3.84191 14.18946,-3.84191 8.40098,0 14.03579,3.53456 5.6348,3.48333 8.4522,9.63039 2.86863,6.09583 2.86863,13.98456 v 4.35417 h -34.47476 q -0.0512,3.63701 1.12696,6.14706 1.17819,2.45882 3.32966,3.73946 2.15147,1.28064 5.0201,1.28064 3.27843,0 5.78848,-1.33187 2.56127,-1.38308 3.73946,-4.76397 h 15.57255 q -0.87083,5.78848 -4.61029,9.93775 -3.68824,4.09804 -9.01569,6.30074 -5.32745,2.20269 -11.01348,2.20269 z m -9.98897,-33.5527 h 18.33872 q 0,-2.6125 -1.02451,-4.76397 -1.02451,-2.2027 -3.07353,-3.48333 -1.99779,-1.28064 -5.07132,-1.28064 -2.71495,0 -4.8152,1.38309 -2.04902,1.33186 -3.2272,3.53456 -1.12696,2.15147 -1.12696,4.61029 z m 68.12988,33.5527 q -7.47892,0 -13.42108,-3.32966 -5.89093,-3.38088 -9.32304,-9.52794 -3.38088,-6.14706 -3.38088,-14.39436 0,-8.24731 3.32966,-14.44559 3.32965,-6.24951 9.22059,-9.78407 5.89093,-3.53456 13.57475,-3.53456 7.06912,0 12.03799,2.97108 5.0201,2.91985 7.73506,7.8375 2.76617,4.86642 3.0223,10.6549 h -14.29191 q -0.25613,-1.79289 -1.17819,-3.73946 -0.92206,-1.94657 -2.66373,-3.27843 -1.69044,-1.38309 -4.50784,-1.38309 -4.55907,0 -7.37647,3.63701 -2.76618,3.58578 -2.76618,10.85981 0,7.17157 2.8174,11.21838 2.86863,4.04681 7.6326,4.04681 2.76618,0 4.50785,-1.48554 1.74166,-1.48554 2.6125,-3.4321 0.87083,-1.94657 1.07573,-3.43211 h 13.93334 q -0.15368,5.58358 -2.97108,10.2451 -2.76618,4.66152 -7.78628,7.47892 -4.96887,2.8174 -11.83309,2.8174 z m 55.42592,-0.35858 q -7.6326,0 -11.83309,-1.89534 -4.14926,-1.94657 -5.78848,-5.27623 -1.58799,-3.38088 -1.58799,-7.6326 v -26.89338 h -8.60588 v -11.93554 h 9.22059 l 4.45662,-16.23849 h 12.34534 v 16.13604 h 11.62819 v 12.03799 h -11.62819 l 0.0512,26.125 q 0,1.58799 0.46103,2.35638 0.51225,0.76838 1.38308,1.02451 0.87084,0.25612 2.10025,0.25612 h 7.73505 v 10.50123 q -1.07574,0.46103 -3.32966,0.92206 -2.25392,0.51225 -6.60809,0.51225 z m 41.59508,0.35858 q -7.99118,0 -13.88211,-3.38088 -5.89093,-3.43211 -9.11814,-9.52794 -3.2272,-6.14706 -3.2272,-14.29192 0,-8.29853 3.27843,-14.54804 3.32966,-6.30074 9.22059,-9.78407 5.94216,-3.48333 13.83088,-3.48333 8.04241,0 13.88211,3.53456 5.89094,3.48333 9.06692,9.78407 3.2272,6.24951 3.2272,14.49681 0,7.93995 -3.17598,14.08701 -3.17598,6.09584 -9.06691,9.6304 -5.89093,3.48333 -14.03579,3.48333 z m 0.10245,-12.80637 q 3.53456,0 5.53236,-2.2027 1.99779,-2.25392 2.8174,-5.68603 0.81961,-3.48333 0.81961,-7.06912 0,-3.53456 -0.76838,-6.91544 -0.76839,-3.38088 -2.76618,-5.53235 -1.9978,-2.2027 -5.63481,-2.2027 -3.63701,0 -5.68603,2.15147 -1.99779,2.10025 -2.8174,5.48113 -0.81961,3.32966 -0.81961,7.01789 0,3.48334 0.76839,6.96667 0.76838,3.43211 2.76617,5.73726 2.04902,2.25392 5.78848,2.25392 z m 35.44802,11.78186 v -52.96716 h 16.80197 v 13.57475 q 1.22941,-4.14926 3.53456,-7.42769 2.35637,-3.32966 5.78848,-5.225 3.43211,-1.94657 7.93995,-1.94657 0.56348,0 0.97328,0.0512 0.46103,0 0.56348,0.10245 v 16.54584 q -0.25612,-0.10245 -0.66593,-0.15368 -0.35858,-0.0512 -0.76838,-0.0512 -5.0201,-0.51226 -8.29853,0.15367 -3.22721,0.66594 -5.12255,2.15148 -1.84412,1.48553 -2.6125,3.53455 -0.71716,2.04902 -0.71716,4.45662 v 27.20074 z m 53.99172,16.90442 q -5.78848,0 -8.2473,-1.02451 -2.45882,-1.02451 -2.45882,-1.02451 v -11.06471 l 5.12255,0.25613 q 3.68823,0.25612 5.8397,-0.25613 2.15147,-0.51226 3.22721,-1.43431 1.07573,-0.87084 1.43431,-1.7929 0.40981,-0.87083 0.51226,-1.22941 l 0.6147,-1.99779 -20.59265,-50.30344 h 17.21177 l 11.37206,31.65736 11.62819,-31.65736 h 17.05809 l -21.05368,51.58407 q -3.12475,7.53015 -6.45441,11.47452 -3.32966,3.99558 -7.12035,5.37867 -3.73946,1.43432 -8.09363,1.43432 z m 43.33686,-16.90442 v -18.18505 h 18.69731 v 18.18505 z"
         id="text1-2"
         style="-inkscape-font-specification:'Public Sans, Ultra-Bold';fill:#ffffff;fill-rule:evenodd;stroke-width:8.37371;stroke-linecap:square"
         aria-label="Dir.ectory." /><path
         d="m 178.984,146.60846 h -41.98831 c 3.06552,-8.63854 11.31967,-14.84158 20.99415,-14.84158 9.67449,0 17.92863,6.20304 20.99416,14.84158 z m -13.57337,-37.10395 c 0,-4.09109 -3.32599,-7.42079 -7.42079,-7.42079 -4.09479,0 -7.42079,3.3297 -7.42079,7.42079 0,4.09108 3.326,7.42079 7.42079,7.42079 4.0948,0 7.42079,-3.32971 7.42079,-7.42079 z M 76.361154,220.81636 c -12.276213,0 -22.26237,-9.98616 -22.26237,-22.26237 V 176.29162 H 42.967598 c -2.048879,0 -3.710394,-1.66151 -3.710394,-3.7104 v -7.42079 c 0,-2.04888 1.661515,-3.71039 3.710394,-3.71039 H 54.098784 V 131.76688 H 42.967598 c -2.048879,0 -3.710394,-1.66152 -3.710394,-3.7104 v -7.42079 c 0,-2.04888 1.661515,-3.71039 3.710394,-3.71039 H 54.098784 V 87.242137 H 42.967598 c -2.048879,0 -3.710394,-1.661515 -3.710394,-3.710396 v -7.42079 c 0,-2.04888 1.661515,-3.710395 3.710394,-3.710395 H 54.098784 V 50.138187 c 0,-12.276213 9.986157,-22.26237 22.26237,-22.26237 z M 202.51459,27.875817 H 91.202734 V 220.81636 H 202.51459 c 12.27621,0 22.26237,-9.98616 22.26237,-22.26237 V 50.138187 c 0,-12.276213 -9.98616,-22.26237 -22.26237,-22.26237 z M 187.67301,161.45004 h -59.36633 c -4.10147,0 -7.42079,-3.32303 -7.42079,-7.42079 0,-13.72995 7.58405,-25.60619 18.70039,-32.02294 -2.43105,-3.56717 -3.85881,-7.86901 -3.85881,-12.5018 0,-12.276219 9.98616,-22.262373 22.26237,-22.262373 12.27622,0 22.26237,9.986154 22.26237,22.262373 0,4.63279 -1.42776,8.93463 -3.85881,12.5018 11.11636,6.41675 18.7004,18.29299 18.7004,32.02294 0,4.09776 -3.31931,7.42079 -7.42079,7.42079 z"
         id="path1"
         style="fill:#f16114;fill-opacity:1;stroke-width:7.42079" /></g></g></svg>
